SplineFontDB: 3.2
FontName: DitaFidrmuc_novo
FullName: DitaFidrmuc_novo
FamilyName: DitaFidrmuc_novo
Weight: Book
Copyright: Copyright (c) 2023, Dita
Version: 001.000
ItalicAngle: 0
UnderlinePosition: -100
UnderlineWidth: 50
Ascent: 800
Descent: 200
InvalidEm: 0
sfntRevision: 0x00010000
LayerCount: 2
Layer: 0 1 "Stra+AX4A-nji" 1
Layer: 1 1 "Prednji" 0
XUID: [1021 707 1661456838 25927]
StyleMap: 0x0000
FSType: 0
OS2Version: 4
OS2_WeightWidthSlopeOnly: 0
OS2_UseTypoMetrics: 1
CreationTime: 1679334923
ModificationTime: 1679400074
PfmFamily: 17
TTFWeight: 400
TTFWidth: 5
LineGap: 90
VLineGap: 0
Panose: 2 0 5 3 0 0 0 0 0 0
OS2TypoAscent: 800
OS2TypoAOffset: 0
OS2TypoDescent: -200
OS2TypoDOffset: 0
OS2TypoLinegap: 90
OS2WinAscent: 1184
OS2WinAOffset: 0
OS2WinDescent: 24
OS2WinDOffset: 0
HheadAscent: 1184
HheadAOffset: 0
HheadDescent: -24
HheadDOffset: 0
OS2SubXSize: 650
OS2SubYSize: 700
OS2SubXOff: 0
OS2SubYOff: 140
OS2SupXSize: 650
OS2SupYSize: 700
OS2SupXOff: 0
OS2SupYOff: 480
OS2StrikeYSize: 49
OS2StrikeYPos: 258
OS2CapHeight: 775
OS2XHeight: 465
OS2Vendor: 'PfEd'
OS2CodePages: 00000001.00000000
OS2UnicodeRanges: 00000005.00000000.00000000.00000000
MarkAttachClasses: 1
DEI: 91125
ShortTable: cvt  2
  33
  633
EndShort
ShortTable: maxp 16
  1
  0
  23
  87
  3
  0
  0
  2
  0
  1
  1
  0
  64
  46
  0
  0
EndShort
LangName: 1033 "" "" "Regular" "FontForge 2.0 : DitaFidrmuc : 20-3-2023" "" "Version 001.000"
GaspTable: 1 65535 2 0
Encoding: UnicodeBmp
UnicodeInterp: none
NameList: AGL For New Fonts
DisplaySize: -48
AntiAlias: 1
FitToEm: 0
WinInfo: 0 38 14
BeginPrivate: 0
EndPrivate
BeginChars: 65539 24

StartChar: .notdef
Encoding: 65536 -1 0
Width: 364
GlyphClass: 1
Flags: W
LayerCount: 2
Fore
SplineSet
33 0 m 1,0,-1
 33 666 l 1,1,-1
 298 666 l 1,2,-1
 298 0 l 1,3,-1
 33 0 l 1,0,-1
66 33 m 1,4,-1
 265 33 l 1,5,-1
 265 633 l 1,6,-1
 66 633 l 1,7,-1
 66 33 l 1,4,-1
EndSplineSet
Validated: 1
EndChar

StartChar: D
Encoding: 68 68 3
Width: 773
GlyphClass: 1
Flags: W
LayerCount: 2
Fore
SplineSet
235 510 m 0,0,1
 242 557 242 557 284 580.5 c 128,-1,2
 326 604 326 604 382 603.5 c 128,-1,3
 438 603 438 603 501 594 c 0,4,5
 539 588 539 588 563.5 524.5 c 128,-1,6
 588 461 588 461 593.5 400 c 128,-1,7
 599 339 599 339 593 324 c 0,8,9
 576 283 576 283 555 252.5 c 128,-1,10
 534 222 534 222 515 205 c 128,-1,11
 496 188 496 188 472.5 179.5 c 128,-1,12
 449 171 449 171 433 168.5 c 128,-1,13
 417 166 417 166 396 168.5 c 128,-1,14
 375 171 375 171 367 173 c 128,-1,15
 359 175 359 175 345 180 c 0,16,17
 263 189 263 189 233 281 c 128,-1,18
 203 373 203 373 235 510 c 0,0,1
11 765 m 1,19,20
 46 668 46 668 69 594 c 128,-1,21
 92 520 92 520 108 433.5 c 128,-1,22
 124 347 124 347 123 277.5 c 128,-1,23
 122 208 122 208 102.5 135 c 128,-1,24
 83 62 83 62 41 0 c 1,25,26
 634 1 634 1 637 0 c 0,27,28
 648 -5 648 -5 682 92 c 128,-1,29
 716 189 716 189 741.5 291 c 128,-1,30
 767 393 767 393 757 399 c 1,31,32
 756 441 756 441 742 479.5 c 128,-1,33
 728 518 728 518 701 552 c 128,-1,34
 674 586 674 586 657.5 603 c 128,-1,35
 641 620 641 620 611 648 c 1,36,37
 463 733 463 733 324.5 756.5 c 128,-1,38
 186 780 186 780 11 765 c 1,19,20
EndSplineSet
Validated: 41
EndChar

StartChar: F
Encoding: 70 70 4
Width: 641
GlyphClass: 1
Flags: W
LayerCount: 2
Fore
SplineSet
437 378 m 1,0,1
 424 412 424 412 392.5 430 c 128,-1,2
 361 448 361 448 324.5 449.5 c 128,-1,3
 288 451 288 451 254 444.5 c 128,-1,4
 220 438 220 438 197.5 424.5 c 128,-1,5
 175 411 175 411 176 397 c 1,6,7
 158 391 158 391 148 290.5 c 128,-1,8
 138 190 138 190 146.5 93.5 c 128,-1,9
 155 -3 155 -3 183 2 c 0,10,11
 187 3 187 3 147 3.5 c 128,-1,12
 107 4 107 4 65.5 3.5 c 128,-1,13
 24 3 24 3 24 2 c 128,-1,14
 24 1 24 1 24.5 81 c 128,-1,15
 25 161 25 161 25.5 275.5 c 128,-1,16
 26 390 26 390 26 504.5 c 128,-1,17
 26 619 26 619 26 700 c 2,18,-1
 27 780 l 1,19,20
 106 759 106 759 202 748.5 c 128,-1,21
 298 738 298 738 378 738.5 c 128,-1,22
 458 739 458 739 526.5 742.5 c 128,-1,23
 595 746 595 746 634 750 c 2,24,-1
 673 754 l 1,25,26
 673 753 673 753 663 721 c 128,-1,27
 653 689 653 689 638.5 644.5 c 128,-1,28
 624 600 624 600 609.5 555.5 c 128,-1,29
 595 511 595 511 585 480 c 128,-1,30
 575 449 575 449 575 450 c 0,31,32
 577 502 577 502 542 544 c 128,-1,33
 507 586 507 586 454.5 609.5 c 128,-1,34
 402 633 402 633 345.5 646 c 128,-1,35
 289 659 289 659 243.5 657 c 128,-1,36
 198 655 198 655 181 642 c 0,37,38
 145 614 145 614 142 578.5 c 128,-1,39
 139 543 139 543 166.5 522 c 128,-1,40
 194 501 194 501 238 510 c 1,41,42
 407 492 407 492 407 492 c 2,43,44
 412 493 412 493 436 387 c 1,45,-1
 437 378 l 1,0,1
EndSplineSet
Validated: 37
EndChar

StartChar: a
Encoding: 97 97 5
Width: 858
GlyphClass: 1
Flags: W
LayerCount: 2
Fore
SplineSet
240 338 m 1,0,-1
 368 314 l 2,1,2
 369 313 369 313 370.5 310.5 c 128,-1,3
 372 308 372 308 377.5 301.5 c 128,-1,4
 383 295 383 295 388 288.5 c 128,-1,5
 393 282 393 282 399 273.5 c 128,-1,6
 405 265 405 265 410.5 258.5 c 128,-1,7
 416 252 416 252 420.5 246 c 128,-1,8
 425 240 425 240 428 237 c 2,9,-1
 430 234 l 1,10,11
 430 235 430 235 414 211 c 128,-1,12
 398 187 398 187 382.5 163 c 128,-1,13
 367 139 367 139 368 140 c 128,-1,14
 369 141 369 141 334.5 146.5 c 128,-1,15
 300 152 300 152 265 157 c 2,16,-1
 230 162 l 1,17,-1
 166 234 l 1,18,-1
 240 338 l 1,0,-1
192 428 m 0,19,20
 153 420 153 420 109.5 382.5 c 128,-1,21
 66 345 66 345 38 292.5 c 128,-1,22
 10 240 10 240 2.5 186 c 128,-1,23
 -5 132 -5 132 31.5 84 c 128,-1,24
 68 36 68 36 150 14 c 1,25,-1
 326 0 l 1,26,-1
 458 32 l 1,27,-1
 544 112 l 1,28,-1
 552 0 l 1,29,-1
 636 0 l 1,30,31
 587 153 587 153 640.5 263.5 c 128,-1,32
 694 374 694 374 830 460 c 1,33,-1
 534 500 l 1,34,35
 558 470 558 470 568 443.5 c 128,-1,36
 578 417 578 417 574 391 c 128,-1,37
 570 365 570 365 563.5 347.5 c 128,-1,38
 557 330 557 330 542.5 302 c 128,-1,39
 528 274 528 274 522 260 c 1,40,-1
 472 376 l 2,41,42
 474 377 474 377 450.5 386 c 128,-1,43
 427 395 427 395 400 403 c 128,-1,44
 373 411 373 411 368 412 c 2,45,46
 368 412 368 412 345.5 416.5 c 128,-1,47
 323 421 323 421 298.5 425 c 128,-1,48
 274 429 274 429 242.5 431 c 128,-1,49
 211 433 211 433 192 428 c 0,19,20
EndSplineSet
Validated: 37
EndChar

StartChar: c
Encoding: 99 99 6
Width: 445
GlyphClass: 1
Flags: W
LayerCount: 2
Fore
SplineSet
16 129 m 1,0,1
 24 86 24 86 41.5 64.5 c 128,-1,2
 59 43 59 43 85.5 28 c 128,-1,3
 112 13 112 13 124 0 c 1,4,5
 388 -6 388 -6 388 0 c 0,6,7
 385 162 385 162 385 162 c 1,8,9
 374 122 374 122 354 100 c 128,-1,10
 334 78 334 78 304.5 73 c 128,-1,11
 275 68 275 68 246 71.5 c 128,-1,12
 217 75 217 75 178 87 c 1,13,14
 125 158 125 158 135.5 214.5 c 128,-1,15
 146 271 146 271 208 300 c 0,16,17
 255 326 255 326 317 306.5 c 128,-1,18
 379 287 379 287 400 243 c 1,19,-1
 448 396 l 1,20,21
 431 395 431 395 385 404.5 c 128,-1,22
 339 414 339 414 294 424 c 128,-1,23
 249 434 249 434 195.5 428 c 128,-1,24
 142 422 142 422 103 397 c 128,-1,25
 64 372 64 372 38.5 304 c 128,-1,26
 13 236 13 236 16 129 c 1,0,1
EndSplineSet
Validated: 41
EndChar

StartChar: d
Encoding: 100 100 7
Width: 591
GlyphClass: 1
Flags: W
LayerCount: 2
Fore
SplineSet
241 306 m 1,0,1
 247 312 247 312 295 290 c 128,-1,2
 343 268 343 268 361 252 c 0,3,4
 394 223 394 223 410 200 c 128,-1,5
 426 177 426 177 425 164 c 128,-1,6
 424 151 424 151 415.5 142 c 128,-1,7
 407 133 407 133 391.5 129 c 128,-1,8
 376 125 376 125 362 123.5 c 128,-1,9
 348 122 348 122 336 122 c 128,-1,10
 324 122 324 122 323 122 c 2,11,-1
 199 129 l 1,12,13
 143 138 143 138 133 207 c 1,14,15
 152 252 152 252 176.5 277.5 c 128,-1,16
 201 303 201 303 241 306 c 1,0,1
585 12 m 1,17,18
 560 3 560 3 550.5 193.5 c 128,-1,19
 541 384 541 384 555 585 c 128,-1,20
 569 786 569 786 601 802 c 1,21,-1
 371 800 l 1,22,23
 392 800 392 800 427 555 c 0,24,25
 459 336 459 336 448 317 c 0,26,27
 447 315 447 315 445 318 c 0,28,29
 411 367 411 367 361 398.5 c 128,-1,30
 311 430 311 430 259.5 439.5 c 128,-1,31
 208 449 208 449 158 434.5 c 128,-1,32
 108 420 108 420 72 384 c 128,-1,33
 36 348 36 348 19.5 280 c 128,-1,34
 3 212 3 212 15 123 c 0,35,36
 18 94 18 94 36 72.5 c 128,-1,37
 54 51 54 51 82 37 c 128,-1,38
 110 23 110 23 154 15 c 128,-1,39
 198 7 198 7 242 3.5 c 128,-1,40
 286 0 286 0 348 1 c 128,-1,41
 410 2 410 2 462 4.5 c 128,-1,42
 514 7 514 7 585 12 c 1,17,18
EndSplineSet
Validated: 37
EndChar

StartChar: i
Encoding: 105 105 8
Width: 289
GlyphClass: 1
Flags: W
LayerCount: 2
Fore
SplineSet
64 702 m 1,0,-1
 40 576 l 1,1,-1
 244 576 l 1,2,3
 169 717 169 717 166 717 c 0,4,5
 164 717 164 717 64 702 c 1,0,-1
46 432 m 1,6,7
 34 3 34 3 34 0 c 1,8,9
 175 0 175 0 175 0 c 1,10,-1
 169 444 l 1,11,-1
 46 432 l 1,6,7
EndSplineSet
Validated: 9
EndChar

StartChar: m
Encoding: 109 109 9
Width: 777
GlyphClass: 1
Flags: W
LayerCount: 2
Fore
SplineSet
106 309 m 1,0,1
 112 196 112 196 70 0 c 1,2,-1
 235 0 l 1,3,4
 234 6 234 6 227 48 c 128,-1,5
 220 90 220 90 218.5 110.5 c 128,-1,6
 217 131 217 131 223 163 c 128,-1,7
 229 195 229 195 247 216 c 1,8,9
 269 228 269 228 288 233 c 128,-1,10
 307 238 307 238 318 240 c 128,-1,11
 329 242 329 242 344.5 234.5 c 128,-1,12
 360 227 360 227 363.5 225 c 128,-1,13
 367 223 367 223 383 209.5 c 128,-1,14
 399 196 399 196 400 195 c 0,15,16
 431 57 431 57 325 0 c 1,17,-1
 514 0 l 1,18,19
 482 5 482 5 472.5 39.5 c 128,-1,20
 463 74 463 74 480.5 115.5 c 128,-1,21
 498 157 498 157 535 180 c 0,22,23
 571 202 571 202 634 187 c 0,24,25
 660 180 660 180 658 174 c 1,26,27
 669 148 669 148 673 133 c 128,-1,28
 677 118 677 118 677 94 c 128,-1,29
 677 70 677 70 662.5 47 c 128,-1,30
 648 24 648 24 619 0 c 1,31,32
 630 0 630 0 648.5 0 c 128,-1,33
 667 0 667 0 706.5 0.5 c 128,-1,34
 746 1 746 1 771.5 1 c 128,-1,35
 797 1 797 1 796 0 c 0,36,37
 787 -5 787 -5 775 22 c 0,38,39
 746 89 746 89 738 210 c 0,40,41
 728 360 728 360 775 384 c 1,42,43
 683 407 683 407 648 406 c 0,44,45
 553 403 553 403 500 288 c 0,46,47
 498 284 498 284 496 279 c 1,48,49
 478 292 478 292 456 323.5 c 128,-1,50
 434 355 434 355 416.5 377 c 128,-1,51
 399 399 399 399 373.5 412 c 128,-1,52
 348 425 348 425 311 405.5 c 128,-1,53
 274 386 274 386 226 330 c 1,54,55
 193 344 193 344 180.5 404 c 128,-1,56
 168 464 168 464 181 501 c 1,57,58
 170 500 170 500 153 498 c 128,-1,59
 136 496 136 496 99.5 492 c 128,-1,60
 63 488 63 488 39 485.5 c 128,-1,61
 15 483 15 483 16 483 c 0,62,63
 37 482 37 482 63.5 444.5 c 128,-1,64
 90 407 90 407 103.5 365 c 128,-1,65
 117 323 117 323 106 309 c 1,0,1
EndSplineSet
Validated: 37
EndChar

StartChar: r
Encoding: 114 114 10
Width: 588
GlyphClass: 1
Flags: W
LayerCount: 2
Fore
SplineSet
376 378 m 1,0,-1
 450 360 l 1,1,-1
 560 244 l 1,2,-1
 594 396 l 1,3,4
 582 405 582 405 562 418 c 128,-1,5
 542 431 542 431 495.5 453 c 128,-1,6
 449 475 449 475 420 476 c 0,7,8
 395 477 395 477 373 474 c 128,-1,9
 351 471 351 471 328.5 462 c 128,-1,10
 306 453 306 453 294.5 447.5 c 128,-1,11
 283 442 283 442 257.5 427 c 128,-1,12
 232 412 232 412 225 408 c 1,13,-1
 222 486 l 1,14,-1
 7 483 l 1,15,16
 17 487 17 487 35 440.5 c 128,-1,17
 53 394 53 394 70 326 c 128,-1,18
 87 258 87 258 101 184.5 c 128,-1,19
 115 111 115 111 115.5 61 c 128,-1,20
 116 11 116 11 102 0 c 1,21,22
 102 0 102 0 110.5 0 c 128,-1,23
 119 0 119 0 134 0 c 128,-1,24
 149 0 149 0 169 0 c 128,-1,25
 189 0 189 0 210.5 0 c 128,-1,26
 232 0 232 0 254 0 c 128,-1,27
 276 0 276 0 295.5 0 c 128,-1,28
 315 0 315 0 330.5 0 c 128,-1,29
 346 0 346 0 355 0 c 2,30,-1
 364 0 l 1,31,32
 330 3 330 3 297.5 25.5 c 128,-1,33
 265 48 265 48 241.5 82 c 128,-1,34
 218 116 218 116 210 158 c 128,-1,35
 202 200 202 200 212.5 240.5 c 128,-1,36
 223 281 223 281 264.5 318.5 c 128,-1,37
 306 356 306 356 376 378 c 1,0,-1
EndSplineSet
Validated: 37
EndChar

StartChar: t
Encoding: 116 116 11
Width: 548
GlyphClass: 1
Flags: W
LayerCount: 2
Fore
SplineSet
274 450 m 0,0,1
 310 470 310 470 335 481 c 128,-1,2
 360 492 360 492 386.5 495.5 c 128,-1,3
 413 499 413 499 428 486.5 c 128,-1,4
 443 474 443 474 449.5 440.5 c 128,-1,5
 456 407 456 407 450 352 c 0,6,7
 450 351 450 351 472.5 432.5 c 128,-1,8
 495 514 495 514 517 596.5 c 128,-1,9
 539 679 539 679 538 680 c 0,10,11
 252 568 252 568 252 568 c 1,12,13
 235 554 235 554 223 596 c 0,14,15
 207 657 207 657 215 730 c 0,16,17
 218 761 218 761 226 768 c 0,18,19
 227 768 227 768 225.5 769 c 128,-1,20
 224 770 224 770 220 771 c 128,-1,21
 216 772 216 772 209 773 c 128,-1,22
 202 774 202 774 191.5 774.5 c 128,-1,23
 181 775 181 775 166 774 c 1,24,25
 181 763 181 763 162.5 689.5 c 128,-1,26
 144 616 144 616 126 576 c 0,27,28
 113 549 113 549 70 607 c 0,29,30
 23 670 23 670 9 727 c 0,31,32
 4 748 4 748 8 758 c 0,33,34
 8 759 8 759 8 640 c 128,-1,35
 8 521 8 521 8 402 c 2,36,-1
 8 282 l 1,37,38
 2 368 2 368 41 437 c 0,39,40
 69 488 69 488 93 475 c 0,41,42
 116 463 116 463 120 390 c 1,43,44
 114 144 114 144 114 144 c 1,45,-1
 120 56 l 2,46,47
 124 53 124 53 125 40 c 128,-1,48
 126 27 126 27 133 15.5 c 128,-1,49
 140 4 140 4 160 0 c 0,50,51
 194 -1 194 -1 266.5 18.5 c 128,-1,52
 339 38 339 38 360 58 c 1,53,-1
 400 128 l 1,54,-1
 436 316 l 1,55,56
 350 148 350 148 350 146 c 0,57,58
 350 145 350 145 291 133 c 128,-1,59
 232 121 232 121 232 120 c 1,60,-1
 224 141 l 2,61,62
 213 176 213 176 210 192 c 0,63,64
 204 220 204 220 227 328.5 c 128,-1,65
 250 437 250 437 274 450 c 0,0,1
EndSplineSet
Validated: 37
EndChar

StartChar: u
Encoding: 117 117 12
Width: 511
GlyphClass: 1
Flags: W
LayerCount: 2
Fore
SplineSet
7 405 m 1,0,1
 10 374 10 374 5.5 317.5 c 128,-1,2
 1 261 1 261 0.5 218 c 128,-1,3
 0 175 0 175 7.5 128 c 128,-1,4
 15 81 15 81 45.5 48 c 128,-1,5
 76 15 76 15 130 0 c 1,6,7
 253 0 253 0 256 0 c 0,8,9
 305 3 305 3 348 83 c 0,10,11
 381 144 381 144 376 174 c 0,12,13
 375 183 375 183 369 182 c 1,14,15
 371 176 371 176 377.5 153 c 128,-1,16
 384 130 384 130 385 124.5 c 128,-1,17
 386 119 386 119 389 101 c 128,-1,18
 392 83 392 83 391 71.5 c 128,-1,19
 390 60 390 60 388 41 c 128,-1,20
 386 22 386 22 381 0 c 1,21,-1
 511 0 l 1,22,23
 488 -8 488 -8 475 35 c 0,24,25
 452 119 452 119 483 284 c 0,26,27
 494 342 494 342 511 399 c 0,28,29
 511 400 511 400 471 403 c 128,-1,30
 431 406 431 406 391 408 c 2,31,-1
 351 410 l 1,32,33
 360 381 360 381 360.5 352.5 c 128,-1,34
 361 324 361 324 351.5 296.5 c 128,-1,35
 342 269 342 269 331 246 c 128,-1,36
 320 223 320 223 299.5 196.5 c 128,-1,37
 279 170 279 170 264 153 c 128,-1,38
 249 136 249 136 226 111 c 1,39,40
 172 107 172 107 137.5 134 c 128,-1,41
 103 161 103 161 93 203.5 c 128,-1,42
 83 246 83 246 82.5 289.5 c 128,-1,43
 82 333 82 333 91.5 365 c 128,-1,44
 101 397 101 397 111 400 c 1,45,46
 102 396 102 396 88 390.5 c 128,-1,47
 74 385 74 385 46 385 c 128,-1,48
 18 385 18 385 7 405 c 1,0,1
EndSplineSet
Validated: 37
EndChar

StartChar: Scaron
Encoding: 352 352 13
Width: 971
GlyphClass: 1
Flags: W
LayerCount: 2
Fore
SplineSet
705 237 m 1,0,1
 673 250 673 250 615.5 264 c 128,-1,2
 558 278 558 278 502.5 288.5 c 128,-1,3
 447 299 447 299 385.5 316.5 c 128,-1,4
 324 334 324 334 275 354 c 128,-1,5
 226 374 226 374 189.5 408 c 128,-1,6
 153 442 153 442 141 484.5 c 128,-1,7
 129 527 129 527 148 589.5 c 128,-1,8
 167 652 167 652 222 729 c 1,9,10
 297 759 297 759 344 773 c 128,-1,11
 391 787 391 787 459.5 796.5 c 128,-1,12
 528 806 528 806 603.5 794.5 c 128,-1,13
 679 783 679 783 774 753 c 1,14,-1
 987 627 l 1,15,-1
 963 423 l 1,16,17
 931 349 931 349 878 395 c 0,18,19
 857 414 857 414 796 496 c 0,20,21
 728 587 728 587 687 607 c 0,22,23
 654 623 654 623 624 609 c 1,24,25
 589 631 589 631 506 577 c 0,26,27
 444 537 444 537 427 505 c 0,28,29
 420 491 420 491 429 486 c 0,30,31
 430 486 430 486 463 457.5 c 128,-1,32
 496 429 496 429 528.5 402.5 c 128,-1,33
 561 376 561 376 561 378 c 0,34,35
 562 381 562 381 638 360.5 c 128,-1,36
 714 340 714 340 791.5 314.5 c 128,-1,37
 869 289 869 289 873 282 c 0,38,39
 882 267 882 267 848 203 c 128,-1,40
 814 139 814 139 769.5 82.5 c 128,-1,41
 725 26 725 26 708 30 c 1,42,43
 712 7 712 7 679.5 -1 c 128,-1,44
 647 -9 647 -9 593.5 -4.5 c 128,-1,45
 540 0 540 0 486.5 8.5 c 128,-1,46
 433 17 433 17 385.5 25 c 128,-1,47
 338 33 338 33 327 33 c 0,48,49
 286 32 286 32 235.5 72.5 c 128,-1,50
 185 113 185 113 142.5 172 c 128,-1,51
 100 231 100 231 66 291.5 c 128,-1,52
 32 352 32 352 17.5 397.5 c 128,-1,53
 3 443 3 443 15 450 c 1,54,55
 40 436 40 436 221 320 c 0,56,57
 457 168 457 168 565 146 c 0,58,59
 690 121 690 121 705 237 c 1,0,1
535 966 m 0,60,61
 560 953 560 953 586.5 966.5 c 128,-1,62
 613 980 613 980 646.5 1010 c 128,-1,63
 680 1040 680 1040 697 1050 c 0,64,65
 702 1053 702 1053 724.5 1066 c 128,-1,66
 747 1079 747 1079 756.5 1083.5 c 128,-1,67
 766 1088 766 1088 784.5 1094 c 128,-1,68
 803 1100 803 1100 820 1101 c 1,69,70
 838 1111 838 1111 858.5 1102.5 c 128,-1,71
 879 1094 879 1094 886 1071 c 0,72,73
 901 1020 901 1020 883.5 987 c 128,-1,74
 866 954 866 954 829 941 c 128,-1,75
 792 928 792 928 743.5 916.5 c 128,-1,76
 695 905 695 905 650 897 c 128,-1,77
 605 889 605 889 568 870 c 128,-1,78
 531 851 531 851 522 816 c 0,79,80
 514 787 514 787 358 890 c 0,81,82
 181 1006 181 1006 89 1092 c 0,83,84
 -8 1184 -8 1184 53 1179 c 0,85,86
 136 1173 136 1173 535 966 c 0,60,61
EndSplineSet
Validated: 33
EndChar

StartChar: Zcaron
Encoding: 381 381 14
Width: 1045
GlyphClass: 1
Flags: W
LayerCount: 2
Fore
SplineSet
535 966 m 0,0,1
 560 953 560 953 586.5 966.5 c 128,-1,2
 613 980 613 980 646.5 1010 c 128,-1,3
 680 1040 680 1040 697 1050 c 0,4,5
 702 1053 702 1053 724.5 1066 c 128,-1,6
 747 1079 747 1079 756.5 1083.5 c 128,-1,7
 766 1088 766 1088 784.5 1094 c 128,-1,8
 803 1100 803 1100 820 1101 c 1,9,10
 838 1111 838 1111 858.5 1102.5 c 128,-1,11
 879 1094 879 1094 886 1071 c 0,12,13
 901 1020 901 1020 883.5 985.5 c 128,-1,14
 866 951 866 951 828.5 935.5 c 128,-1,15
 791 920 791 920 742.5 906 c 128,-1,16
 694 892 694 892 648.5 881.5 c 128,-1,17
 603 871 603 871 567.5 847.5 c 128,-1,18
 532 824 532 824 523 789 c 0,19,20
 516 762 516 762 367 862 c 0,21,22
 206 969 206 969 97 1073 c 0,23,24
 -13 1179 -13 1179 54 1176 c 0,25,26
 143 1172 143 1172 535 966 c 0,0,1
166 789 m 1,27,28
 144 794 144 794 116 695.5 c 128,-1,29
 88 597 88 597 73.5 495.5 c 128,-1,30
 59 394 59 394 70 393 c 0,31,32
 159 384 159 384 242.5 395 c 128,-1,33
 326 406 326 406 389.5 431 c 128,-1,34
 453 456 453 456 508 488.5 c 128,-1,35
 563 521 563 521 602 556 c 128,-1,36
 641 591 641 591 668.5 619.5 c 128,-1,37
 696 648 696 648 711 667.5 c 128,-1,38
 726 687 726 687 727 687 c 0,39,40
 751 696 751 696 721 649 c 0,41,42
 656 551 656 551 469 357 c 0,43,44
 221 101 221 101 84 22 c 0,45,46
 57 7 57 7 37 0 c 0,47,48
 35 -1 35 -1 209 -1.5 c 128,-1,49
 383 -2 383 -2 559 -2 c 128,-1,50
 735 -2 735 -2 739 0 c 0,51,52
 835 45 835 45 899 91 c 128,-1,53
 963 137 963 137 989.5 176.5 c 128,-1,54
 1016 216 1016 216 1022.5 253.5 c 128,-1,55
 1029 291 1029 291 1013.5 322 c 128,-1,56
 998 353 998 353 974 380 c 128,-1,57
 950 407 950 407 919 427.5 c 128,-1,58
 888 448 888 448 860.5 462.5 c 128,-1,59
 833 477 833 477 814.5 484.5 c 128,-1,60
 796 492 796 492 793 492 c 0,61,62
 791 492 791 492 581 282 c 128,-1,63
 371 72 371 72 370 72 c 0,64,65
 366 72 366 72 711 504 c 0,66,67
 971 829 971 829 959 804 c 0,68,69
 959 803 959 803 958 801 c 0,70,71
 948 784 948 784 745.5 774 c 128,-1,72
 543 764 543 764 349 768 c 128,-1,73
 155 772 155 772 166 789 c 1,27,28
EndSplineSet
Validated: 37
EndChar

StartChar: scaron
Encoding: 353 353 15
Width: 581
GlyphClass: 1
Flags: W
LayerCount: 2
Fore
SplineSet
332 513 m 0,0,1
 267 516 267 516 211 608 c 0,2,3
 162 686 162 686 161 752 c 0,4,5
 159 805 159 805 196 802 c 0,6,7
 248 798 248 798 355 681 c 0,8,9
 388 649 388 649 429.5 650.5 c 128,-1,10
 471 652 471 652 508.5 674.5 c 128,-1,11
 546 697 546 697 557 726 c 0,12,13
 574 769 574 769 581 766 c 0,14,15
 591 762 591 762 573 708 c 0,16,17
 538 605 538 605 463 551 c 0,18,19
 404 509 404 509 332 513 c 0,0,1
247 483 m 0,20,21
 162 472 162 472 115 428.5 c 128,-1,22
 68 385 68 385 46 294 c 0,23,24
 39 266 39 266 57 244 c 128,-1,25
 75 222 75 222 99.5 211 c 128,-1,26
 124 200 124 200 166 184 c 128,-1,27
 208 168 208 168 226 159 c 0,28,29
 238 153 238 153 278.5 144 c 128,-1,30
 319 135 319 135 342 122 c 128,-1,31
 365 109 365 109 361 87 c 0,32,33
 360 80 360 80 357 79 c 128,-1,34
 354 78 354 78 349.5 81.5 c 128,-1,35
 345 85 345 85 340.5 89 c 128,-1,36
 336 93 336 93 330 96.5 c 128,-1,37
 324 100 324 100 319 99 c 0,38,39
 252 90 252 90 222 95.5 c 128,-1,40
 192 101 192 101 176 116 c 128,-1,41
 160 131 160 131 155 147 c 128,-1,42
 150 163 150 163 134 175 c 128,-1,43
 118 187 118 187 88 186 c 0,44,45
 46 185 46 185 6 109 c 0,46,47
 1 99 1 99 1 99 c 1,48,49
 38 43 38 43 139.5 16.5 c 128,-1,50
 241 -10 241 -10 334 0 c 0,51,52
 422 10 422 10 483 48.5 c 128,-1,53
 544 87 544 87 544 165 c 0,54,55
 544 194 544 194 522.5 214 c 128,-1,56
 501 234 501 234 469.5 241 c 128,-1,57
 438 248 438 248 405.5 248 c 128,-1,58
 373 248 373 248 349 240 c 0,59,60
 307 227 307 227 250 250 c 0,61,62
 197 272 197 272 201 301 c 0,63,64
 207 342 207 342 325 372 c 0,65,66
 332 374 332 374 387 334.5 c 128,-1,67
 442 295 442 295 445 294 c 0,68,69
 470 289 470 289 510 328 c 0,70,71
 563 379 563 379 556 424 c 0,72,73
 544 504 544 504 339 492 c 0,74,75
 297 490 297 490 247 483 c 0,20,21
EndSplineSet
Validated: 41
EndChar

StartChar: zcaron
Encoding: 382 382 16
Width: 431
GlyphClass: 1
Flags: W
LayerCount: 2
Fore
SplineSet
37 409 m 1,0,1
 36 393 36 393 27.5 358 c 128,-1,2
 19 323 19 323 12 295 c 128,-1,3
 5 267 5 267 3.5 236.5 c 128,-1,4
 2 206 2 206 15 199 c 1,5,6
 31 177 31 177 75.5 195 c 128,-1,7
 120 213 120 213 169.5 247.5 c 128,-1,8
 219 282 219 282 256 312 c 128,-1,9
 293 342 293 342 295 345 c 1,10,11
 295 345 295 345 288 334.5 c 128,-1,12
 281 324 281 324 268 304.5 c 128,-1,13
 255 285 255 285 238 260 c 128,-1,14
 221 235 221 235 200.5 207 c 128,-1,15
 180 179 180 179 159 151 c 128,-1,16
 138 123 138 123 116.5 96.5 c 128,-1,17
 95 70 95 70 76 49.5 c 128,-1,18
 57 29 57 29 40.5 15.5 c 128,-1,19
 24 2 24 2 13 0 c 1,20,-1
 113 0 l 1,21,-1
 279 0 l 1,22,-1
 352 48 l 2,23,24
 410 88 410 88 427 110 c 0,25,26
 438 121 438 121 427.5 144 c 128,-1,27
 417 167 417 167 395 188 c 128,-1,28
 373 209 373 209 363 204 c 0,29,30
 362 204 362 204 281 134.5 c 128,-1,31
 200 65 200 65 199 65 c 0,32,33
 183 65 183 65 229.5 153 c 128,-1,34
 276 241 276 241 339 328.5 c 128,-1,35
 402 416 402 416 427 415 c 1,36,-1
 287 400 l 1,37,38
 51 380 51 380 37 409 c 1,0,1
174 453 m 0,39,40
 109 456 109 456 53 548 c 0,41,42
 4 626 4 626 3 692 c 0,43,44
 1 745 1 745 38 742 c 0,45,46
 90 738 90 738 197 621 c 0,47,48
 230 589 230 589 271.5 590.5 c 128,-1,49
 313 592 313 592 350.5 614.5 c 128,-1,50
 388 637 388 637 399 666 c 0,51,52
 416 709 416 709 423 706 c 0,53,54
 433 702 433 702 415 648 c 0,55,56
 380 545 380 545 305 491 c 0,57,58
 246 449 246 449 174 453 c 0,39,40
EndSplineSet
Validated: 37
EndChar

StartChar: Cacute
Encoding: 262 262 17
Width: 733
GlyphClass: 1
Flags: W
LayerCount: 2
Fore
SplineSet
673 312 m 1,0,-1
 676 81 l 1,1,2
 702 81 702 81 671 65 c 0,3,4
 604 30 604 30 473 10 c 0,5,6
 250 -24 250 -24 127 48 c 0,7,8
 64 85 64 85 25 210.5 c 128,-1,9
 -14 336 -14 336 22 426 c 0,10,11
 52 501 52 501 121 570 c 128,-1,12
 190 639 190 639 273.5 681.5 c 128,-1,13
 357 724 357 724 440.5 744 c 128,-1,14
 524 764 524 764 593 745 c 128,-1,15
 662 726 662 726 691 669 c 1,16,-1
 664 462 l 1,17,18
 627 530 627 530 572 554.5 c 128,-1,19
 517 579 517 579 462.5 564 c 128,-1,20
 408 549 408 549 357 514 c 128,-1,21
 306 479 306 479 270 430 c 128,-1,22
 234 381 234 381 223 336 c 0,23,24
 200 238 200 238 300 204 c 0,25,26
 389 174 389 174 512 204 c 0,27,28
 625 233 625 233 662 289 c 0,29,30
 670 300 670 300 673 312 c 1,0,-1
403 974 m 0,31,32
 508 1013 508 1013 553 1038 c 0,33,34
 558 1041 558 1041 580.5 1054 c 128,-1,35
 603 1067 603 1067 612.5 1071.5 c 128,-1,36
 622 1076 622 1076 640.5 1082 c 128,-1,37
 659 1088 659 1088 676 1089 c 1,38,39
 694 1099 694 1099 714.5 1090.5 c 128,-1,40
 735 1082 735 1082 742 1059 c 0,41,42
 760 1008 760 1008 744.5 973 c 128,-1,43
 729 938 729 938 700.5 922 c 128,-1,44
 672 906 672 906 626.5 893 c 128,-1,45
 581 880 581 880 539 871.5 c 128,-1,46
 497 863 497 863 455 844 c 128,-1,47
 413 825 413 825 391 797 c 0,48,49
 371 771 371 771 348 801 c 0,50,51
 322 837 322 837 331 889 c 0,52,53
 341 951 341 951 403 974 c 0,31,32
EndSplineSet
Validated: 33
EndChar

StartChar: Ccaron
Encoding: 268 268 18
Width: 721
GlyphClass: 1
Flags: W
LayerCount: 2
Fore
SplineSet
673 312 m 1,0,-1
 676 81 l 1,1,2
 702 81 702 81 671 65 c 0,3,4
 604 30 604 30 473 10 c 0,5,6
 250 -24 250 -24 127 48 c 0,7,8
 64 85 64 85 25 210.5 c 128,-1,9
 -14 336 -14 336 22 426 c 0,10,11
 52 501 52 501 121 570 c 128,-1,12
 190 639 190 639 273.5 681.5 c 128,-1,13
 357 724 357 724 440.5 744 c 128,-1,14
 524 764 524 764 593 745 c 128,-1,15
 662 726 662 726 691 669 c 1,16,-1
 664 462 l 1,17,18
 627 530 627 530 572 554.5 c 128,-1,19
 517 579 517 579 462.5 564 c 128,-1,20
 408 549 408 549 357 514 c 128,-1,21
 306 479 306 479 270 430 c 128,-1,22
 234 381 234 381 223 336 c 0,23,24
 200 238 200 238 300 204 c 0,25,26
 389 174 389 174 512 204 c 0,27,28
 625 233 625 233 662 289 c 0,29,30
 670 300 670 300 673 312 c 1,0,-1
463 962 m 0,31,32
 488 949 488 949 514.5 962.5 c 128,-1,33
 541 976 541 976 574.5 1006 c 128,-1,34
 608 1036 608 1036 625 1046 c 0,35,36
 630 1049 630 1049 652.5 1062 c 128,-1,37
 675 1075 675 1075 684.5 1079.5 c 128,-1,38
 694 1084 694 1084 712.5 1090 c 128,-1,39
 731 1096 731 1096 748 1097 c 1,40,41
 766 1107 766 1107 786.5 1098.5 c 128,-1,42
 807 1090 807 1090 814 1067 c 0,43,44
 829 1016 829 1016 811.5 981.5 c 128,-1,45
 794 947 794 947 756.5 931.5 c 128,-1,46
 719 916 719 916 670.5 902 c 128,-1,47
 622 888 622 888 576.5 877.5 c 128,-1,48
 531 867 531 867 495.5 843.5 c 128,-1,49
 460 820 460 820 451 785 c 0,50,51
 444 758 444 758 295 858 c 0,52,53
 134 965 134 965 25 1069 c 0,54,55
 -85 1175 -85 1175 -18 1172 c 0,56,57
 71 1168 71 1168 463 962 c 0,31,32
EndSplineSet
Validated: 33
EndChar

StartChar: Dcroat
Encoding: 272 272 19
Width: 824
GlyphClass: 1
Flags: W
LayerCount: 2
Fore
SplineSet
269.581054688 371.620117188 m 1,0,1
 271 322 271 322 284 281 c 0,2,3
 313 192 313 192 396 180 c 0,4,5
 405 179 405 179 418 173 c 0,6,7
 421 172 421 172 447 168.5 c 0,8,9
 468 166 468 166 484 168.5 c 128,-1,10
 500 171 500 171 523.5 179.5 c 128,-1,11
 547 188 547 188 566 205 c 128,-1,12
 585 222 585 222 606 252.5 c 128,-1,13
 627 283 627 283 644 324 c 0,14,15
 650 339 650 339 644.5 400 c 128,-1,16
 639 461 639 461 614.5 524.5 c 128,-1,17
 590 588 590 588 552 594 c 0,18,19
 489 603 489 603 433 603.5 c 128,-1,20
 377 604 377 604 335 580.5 c 0,21,22
 296 559 296 559 286 510 c 0,23,24
 286 510 286 510 271 430 c 1,25,26
 311 439 311 439 351.5 450 c 0,27,28
 461 480 461 480 502 528 c 1,29,30
 479 492 479 492 466 449.5 c 128,-1,31
 453 407 453 407 456.5 361 c 128,-1,32
 460 315 460 315 484 282 c 1,33,34
 276 373 276 373 269.581054688 371.620117188 c 1,0,1
190 258 m 24,35,36
 194 292 194 292 184.5 306.5 c 129,-1,37
 175 321 175 321 22 162 c 1,38,39
 55 243 55 243 50.5 322.5 c 128,-1,40
 46 402 46 402 10 447 c 1,41,42
 199 324 199 324 162 422 c 24,43,44
 159 430 159 430 159 434 c 128,-1,45
 159 438 159 438 115.244412824 592.843437681 c 0,46,47
 91 678 91 678 62 765 c 1,48,49
 237 780 237 780 375.5 756.5 c 128,-1,50
 514 733 514 733 662 648 c 1,51,52
 692 620 692 620 708.5 603 c 128,-1,53
 725 586 725 586 752 552 c 128,-1,54
 779 518 779 518 793 479.5 c 128,-1,55
 807 441 807 441 808 399 c 1,56,57
 818 393 818 393 792.5 291 c 128,-1,58
 767 189 767 189 733 92 c 0,59,60
 699 -4 699 -4 688 0 c 0,61,62
 685 1 685 1 92 0 c 1,63,64
 127 51 127 51 153.75 137.75 c 0,65,66
 189 252 189 252 190 258 c 24,35,36
EndSplineSet
Validated: 524321
EndChar

StartChar: cacute
Encoding: 263 263 20
Width: 462
GlyphClass: 1
Flags: W
LayerCount: 2
Fore
SplineSet
15 129 m 1,0,1
 23 86 23 86 40.5 64.5 c 128,-1,2
 58 43 58 43 84.5 28 c 128,-1,3
 111 13 111 13 123 0 c 1,4,5
 387 -6 387 -6 387 0 c 0,6,7
 384 162 384 162 384 162 c 1,8,9
 373 122 373 122 353 100 c 128,-1,10
 333 78 333 78 303.5 73 c 128,-1,11
 274 68 274 68 245 71.5 c 128,-1,12
 216 75 216 75 177 87 c 1,13,14
 124 158 124 158 134.5 214.5 c 128,-1,15
 145 271 145 271 207 300 c 0,16,17
 254 326 254 326 316 306.5 c 128,-1,18
 378 287 378 287 399 243 c 1,19,-1
 447 396 l 1,20,21
 430 395 430 395 384 404.5 c 128,-1,22
 338 414 338 414 293 424 c 128,-1,23
 248 434 248 434 194.5 428 c 128,-1,24
 141 422 141 422 102 397 c 128,-1,25
 63 372 63 372 37.5 304 c 128,-1,26
 12 236 12 236 15 129 c 1,0,1
459 681 m 0,27,28
 461 715 461 715 391 687 c 0,29,30
 372 679 372 679 273 627 c 0,31,32
 260 620 260 620 255 618 c 0,33,34
 184 591 184 591 177 527 c 0,35,36
 172 484 172 484 195 464 c 0,37,38
 213 447 213 447 231 470 c 0,39,40
 257 503 257 503 290.5 527.5 c 128,-1,41
 324 552 324 552 351 565.5 c 128,-1,42
 378 579 378 579 402.5 593 c 128,-1,43
 427 607 427 607 442 628 c 128,-1,44
 457 649 457 649 459 681 c 0,27,28
EndSplineSet
Validated: 41
EndChar

StartChar: ccaron
Encoding: 269 269 21
Width: 442
GlyphClass: 1
Flags: W
LayerCount: 2
Fore
SplineSet
-2 129 m 1,0,1
 6 86 6 86 23.5 64.5 c 128,-1,2
 41 43 41 43 67.5 28 c 128,-1,3
 94 13 94 13 106 0 c 1,4,5
 370 -6 370 -6 370 0 c 0,6,7
 367 162 367 162 367 162 c 1,8,9
 356 122 356 122 336 100 c 128,-1,10
 316 78 316 78 286.5 73 c 128,-1,11
 257 68 257 68 228 71.5 c 128,-1,12
 199 75 199 75 160 87 c 1,13,14
 107 158 107 158 117.5 214.5 c 128,-1,15
 128 271 128 271 190 300 c 0,16,17
 237 326 237 326 299 306.5 c 128,-1,18
 361 287 361 287 382 243 c 1,19,-1
 430 396 l 1,20,21
 413 395 413 395 367 404.5 c 128,-1,22
 321 414 321 414 276 424 c 128,-1,23
 231 434 231 434 177.5 428 c 128,-1,24
 124 422 124 422 85 397 c 128,-1,25
 46 372 46 372 20.5 304 c 128,-1,26
 -5 236 -5 236 -2 129 c 1,0,1
191 476 m 0,27,28
 126 479 126 479 70 571 c 0,29,30
 21 649 21 649 20 715 c 0,31,32
 18 768 18 768 55 765 c 0,33,34
 107 761 107 761 214 644 c 0,35,36
 247 612 247 612 288.5 613.5 c 128,-1,37
 330 615 330 615 367.5 637.5 c 128,-1,38
 405 660 405 660 416 689 c 0,39,40
 433 732 433 732 440 729 c 0,41,42
 450 725 450 725 432 671 c 0,43,44
 397 568 397 568 322 514 c 0,45,46
 263 472 263 472 191 476 c 0,27,28
EndSplineSet
Validated: 41
EndChar

StartChar: dcroat
Encoding: 273 273 22
Width: 699
GlyphClass: 1
Flags: W
LayerCount: 2
Fore
SplineSet
241 306 m 1,0,1
 247 312 247 312 295 290 c 128,-1,2
 343 268 343 268 361 252 c 0,3,4
 394 223 394 223 410 200 c 128,-1,5
 426 177 426 177 425 164 c 128,-1,6
 424 151 424 151 415.5 142 c 128,-1,7
 407 133 407 133 391.5 129 c 128,-1,8
 376 125 376 125 362 123.5 c 128,-1,9
 348 122 348 122 336 122 c 128,-1,10
 324 122 324 122 323 122 c 2,11,-1
 199 129 l 1,12,13
 143 138 143 138 133 207 c 1,14,15
 152 252 152 252 176.5 277.5 c 128,-1,16
 201 303 201 303 241 306 c 1,0,1
429.581054688 537.330078125 m 24,17,18
 459 337 459 337 448 317 c 0,19,20
 447 315 447 315 445 318 c 0,21,22
 411 367 411 367 361 398.5 c 128,-1,23
 311 430 311 430 259.5 439.5 c 128,-1,24
 208 449 208 449 158 434.5 c 128,-1,25
 108 420 108 420 72 384 c 128,-1,26
 36 348 36 348 19.5 280 c 0,27,28
 4 215 4 215 15 123 c 0,29,30
 19 89 19 89 45 66 c 0,31,32
 72 42 72 42 122 30 c 128,-1,33
 172 18 172 18 226.5 11.5 c 128,-1,34
 281 5 281 5 359.5 5.5 c 128,-1,35
 438 6 438 6 500.5 9 c 128,-1,36
 563 12 563 12 649 18 c 1,37,38
 608 3 608 3 582 192.5 c 0,39,40
 557 374 557 374 560 485 c 1,41,42
 589 466 589 466 618.5 447.5 c 0,43,44
 671 415 671 415 693 354 c 1,45,46
 658 433 658 433 676 538.5 c 128,-1,47
 694 644 694 644 748 684 c 1,48,49
 683 620 683 620 607.5 599.5 c 0,50,51
 591 595 591 595 560 579 c 1,52,53
 561 582 561 582 561.5 584 c 0,54,55
 614 794 614 794 601 802 c 1,56,57
 371 800 371 800 371 800 c 1,58,59
 378 800 378 800 408 610 c 24,60,61
 408 610 408 610 340 646.5 c 128,-1,62
 272 683 272 683 238 738 c 1,63,64
 281 690 281 690 284.5 637.5 c 128,-1,65
 288 585 288 585 267 550 c 128,-1,66
 246 515 246 515 217 501 c 1,67,68
 273 457 273 457 351.25 519.75 c 0,69,70
 424 577 424 577 429.581054688 537.330078125 c 24,17,18
EndSplineSet
Validated: 524325
EndChar

